<svg xmlns="http://www.w3.org/2000/svg" width="1200" height="320" viewBox="0 0 1200 320">
  <defs>
    <linearGradient id="bg" x1="0" y1="0" x2="1" y2="1">
      <stop offset="0%" stop-color="#0a0a0a"/>
      <stop offset="55%" stop-color="#111111"/>
      <stop offset="100%" stop-color="#1a1208"/>
    </linearGradient>
    <linearGradient id="accent" x1="0" y1="0" x2="1" y2="0">
      <stop offset="0%" stop-color="#f54e00"/>
      <stop offset="100%" stop-color="#ff8a3d"/>
    </linearGradient>
  </defs>
  <rect width="1200" height="320" fill="url(#bg)"/>
  <g stroke="#ffffff" stroke-opacity="0.05" stroke-width="1">
    <path d="M0 40h1200M0 80h1200M0 120h1200M0 160h1200M0 200h1200M0 240h1200M0 280h1200"/>
    <path d="M40 0v320M80 0v320M120 0v320M160 0v320M200 0v320M240 0v320M280 0v320M320 0v320M360 0v320M400 0v320M440 0v320M480 0v320M520 0v320M560 0v320M600 0v320M640 0v320M680 0v320M720 0v320M760 0v320M800 0v320M840 0v320M880 0v320M920 0v320M960 0v320M1000 0v320M1040 0v320M1080 0v320M1120 0v320M1160 0v320"/>
  </g>
  <rect x="0" y="0" width="6" height="320" fill="url(#accent)"/>
  <circle cx="1080" cy="160" r="120" fill="#f54e00" fill-opacity="0.08"/>
  <circle cx="1080" cy="160" r="72" fill="none" stroke="#f54e00" stroke-opacity="0.35" stroke-width="1.5"/>
  <text x="64" y="118" fill="#f54e00" font-family="Menlo, Consolas, monospace" font-size="14" letter-spacing="4">AGENT SKILL</text>
  <text x="64" y="178" fill="#f4f1ea" font-family="Georgia, serif" font-size="64" font-weight="700">Design Director</text>
  <text x="64" y="228" fill="#a8a29a" font-family="Helvetica, Arial, sans-serif" font-size="22">Plan palette, type, and motion from real catalogs - then ship.</text>
  <rect x="64" y="260" width="220" height="2" fill="url(#accent)"/>
</svg>
